<svg width="16" height="16" viewBox="0 0 16 16" fill="none" xmlns="http://www.w3.org/2000/svg">
<g opacity="0.65">
<path d="M6 8L8 8" stroke="black" stroke-linecap="round" stroke-linejoin="round"/>
<path d="M6 2L6 8L6 14L2 14L2 2L6 2Z" stroke="black" stroke-linecap="round" stroke-linejoin="round"/>
<path d="M11.8327 2L12.166 2" stroke="black" stroke-linecap="round" stroke-linejoin="round"/>
<path d="M10.0007 2L10.334 2" stroke="black" stroke-width="1.33333" stroke-linecap="round" stroke-linejoin="round"/>
<path d="M13.6667 2L14 2" stroke="black" stroke-width="1.33333" stroke-linecap="round" stroke-linejoin="round"/>
<path d="M11.8327 14L12.166 14" stroke="black" stroke-linecap="round" stroke-linejoin="round"/>
<path d="M10.0007 14L10.334 14" stroke="black" stroke-width="1.33333" stroke-linecap="round" stroke-linejoin="round"/>
<path d="M13.6667 14L14 14" stroke="black" stroke-width="1.33333" stroke-linecap="round" stroke-linejoin="round"/>
<path d="M10 13.9974L10 13.6641" stroke="black" stroke-linecap="round" stroke-linejoin="round"/>
<path d="M10 2.33333L10 2" stroke="black" stroke-linecap="round" stroke-linejoin="round"/>
<path d="M14 2.33333L14 2" stroke="black" stroke-linecap="round" stroke-linejoin="round"/>
<path d="M14 4.66927L14 4.33594" stroke="black" stroke-linecap="round" stroke-linejoin="round"/>
<path d="M14 6.9974L14 6.66406" stroke="black" stroke-linecap="round" stroke-linejoin="round"/>
<path d="M10 6.9974L10 6.66406" stroke="black" stroke-linecap="round" stroke-linejoin="round"/>
<path d="M14 9.33333L14 9" stroke="black" stroke-linecap="round" stroke-linejoin="round"/>
<path d="M10 4.66927L10 4.33594" stroke="black" stroke-linecap="round" stroke-linejoin="round"/>
<path d="M10 9.33333L10 9" stroke="black" stroke-linecap="round" stroke-linejoin="round"/>
<path d="M14 11.6693L14 11.3359" stroke="black" stroke-linecap="round" stroke-linejoin="round"/>
<path d="M10 11.6693L10 11.3359" stroke="black" stroke-linecap="round" stroke-linejoin="round"/>
<path d="M14 13.9974L14 13.6641" stroke="black" stroke-linecap="round" stroke-linejoin="round"/>
</g>
</svg>
