<svg width="16" height="16" viewBox="0 0 16 16" fill="none" xmlns="http://www.w3.org/2000/svg">
<g id="&#230;&#183;&#187;&#229;&#138;&#160;&#229;&#173;&#151;&#230;&#174;&#181;">
<path id="Vector" fill-rule="evenodd" clip-rule="evenodd" d="M7.99992 14.6615C11.6818 14.6615 14.6666 11.6767 14.6666 7.99479C14.6666 4.31289 11.6818 1.32812 7.99992 1.32812C4.31802 1.32812 1.33325 4.31289 1.33325 7.99479C1.33325 11.6767 4.31802 14.6615 7.99992 14.6615Z" stroke="#828EE8" stroke-linecap="round" stroke-linejoin="round"/>
<path id="Vector_2" d="M8.00004 7.66927C8.92051 7.66927 9.66671 6.92307 9.66671 6.0026C9.66671 5.08214 8.92051 4.33594 8.00004 4.33594C7.07957 4.33594 6.33337 5.08214 6.33337 6.0026C6.33337 6.92307 7.07957 7.66927 8.00004 7.66927Z" stroke="#828EE8" stroke-linecap="round" stroke-linejoin="round"/>
<path id="Vector_3" d="M3.3407 12.7747C3.45526 11.0376 4.90056 9.66406 6.6667 9.66406H9.33337C11.0972 9.66406 12.541 11.034 12.6589 12.7678" stroke="#828EE8" stroke-linecap="round" stroke-linejoin="round"/>
</g>
</svg>
