<svg width="16" height="16" viewBox="0 0 16 16" fill="none" xmlns="http://www.w3.org/2000/svg">
<g id="&#230;&#183;&#187;&#229;&#138;&#160;&#229;&#173;&#151;&#230;&#174;&#181;" opacity="0.45">
<g id="Group 2500">
<path id="Vector" d="M13 2H3C2.44772 2 2 2.44772 2 3V13C2 13.5523 2.44772 14 3 14H13C13.5523 14 14 13.5523 14 13V3C14 2.44772 13.5523 2 13 2Z" stroke="black" stroke-linecap="round" stroke-linejoin="round"/>
<path id="Vector_2" d="M6.00004 7.66927C6.92051 7.66927 7.66671 6.92307 7.66671 6.0026C7.66671 5.08214 6.92051 4.33594 6.00004 4.33594C5.07957 4.33594 4.33337 5.08214 4.33337 6.0026C4.33337 6.92307 5.07957 7.66927 6.00004 7.66927Z" stroke="black" stroke-linecap="round" stroke-linejoin="round"/>
<path id="Vector_3" d="M9.26341 8.73639C9.53551 8.37222 10.0843 8.38119 10.3443 8.75409L13.2693 12.9486C13.5774 13.3906 13.2612 13.9966 12.7224 13.9966H5.33337L9.26341 8.73639Z" stroke="black" stroke-linecap="round" stroke-linejoin="round"/>
</g>
</g>
</svg>
