<svg width="16" height="16" viewBox="0 0 16 16" fill="none" xmlns="http://www.w3.org/2000/svg">
<g id="&#230;&#183;&#187;&#229;&#138;&#160;&#229;&#173;&#151;&#230;&#174;&#181;" opacity="0.45">
<g id="Group 2490">
<path id="Vector" d="M3.28599 11.0859C2.07957 11.4479 1.33337 11.9479 1.33337 12.5001C1.33337 13.6047 4.31814 14.5001 8.00004 14.5001C11.6819 14.5001 14.6667 13.6047 14.6667 12.5001C14.6667 11.9479 13.9205 11.4479 12.7141 11.0859" stroke="black" stroke-linecap="round" stroke-linejoin="round"/>
<path id="Vector_2" d="M7.99996 11.8333C7.99996 11.8333 12.3333 9.00133 12.3333 5.72727C12.3333 3.39261 10.3932 1.5 7.99996 1.5C5.60673 1.5 3.66663 3.39261 3.66663 5.72727C3.66663 9.00133 7.99996 11.8333 7.99996 11.8333Z" stroke="black" stroke-linejoin="round"/>
<path id="Vector_3" d="M8.00004 7.4974C8.92051 7.4974 9.66671 6.7512 9.66671 5.83073C9.66671 4.91026 8.92051 4.16406 8.00004 4.16406C7.07957 4.16406 6.33337 4.91026 6.33337 5.83073C6.33337 6.7512 7.07957 7.4974 8.00004 7.4974Z" stroke="black" stroke-linejoin="round"/>
</g>
</g>
</svg>
