<svg width="16" height="16" viewBox="0 0 16 16" fill="none" xmlns="http://www.w3.org/2000/svg">
<g id="&#230;&#183;&#187;&#229;&#138;&#160;&#229;&#173;&#151;&#230;&#174;&#181;">
<g id="Group 2492">
<path id="Vector" d="M12.3324 7.23707C12.2811 4.33597 9.91333 2 6.99996 2C4.05443 2 1.66663 4.3878 1.66663 7.33333C1.66663 8.72337 2.1984 9.9892 3.0696 10.9385L2.6701 13.3419L5.04163 12.3233C6.08653 12.6707 7.07263 12.7576 7.99996 12.5839" stroke="#828EE8" stroke-linecap="round" stroke-linejoin="round"/>
<path id="Vector_2" d="M5.04163 6.82363C5.45583 6.82363 5.79163 6.48537 5.79163 6.06807C5.79163 5.6508 5.45583 5.3125 5.04163 5.3125C4.62743 5.3125 4.29163 5.6508 4.29163 6.06807C4.29163 6.48537 4.62743 6.82363 5.04163 6.82363Z" fill="#828EE8"/>
<path id="Vector_3" d="M8.04163 6.82363C8.45583 6.82363 8.79163 6.48537 8.79163 6.06807C8.79163 5.6508 8.45583 5.3125 8.04163 5.3125C7.62743 5.3125 7.29163 5.6508 7.29163 6.06807C7.29163 6.48537 7.62743 6.82363 8.04163 6.82363Z" fill="#828EE8"/>
<path id="Vector_4" d="M12.9206 13.3098C12.3379 13.7434 11.6156 14 10.8334 14C8.90037 14 7.33337 12.433 7.33337 10.5C7.33337 8.567 8.90037 7 10.8334 7C12.7664 7 14.3334 8.567 14.3334 10.5C14.3334 11.0332 14.2141 11.5386 14.0008 11.9909" stroke="#828EE8" stroke-linecap="round" stroke-linejoin="round"/>
<path id="Vector_5" d="M14.0009 11.9922L14.3334 14.0013L12.9207 13.311" stroke="#828EE8" stroke-linecap="round" stroke-linejoin="round"/>
<path id="Vector_6" d="M11.8959 10.2661C11.5852 10.2661 11.3334 10.0124 11.3334 9.69948C11.3334 9.38651 11.5852 9.13281 11.8959 9.13281C12.2065 9.13281 12.4584 9.38651 12.4584 9.69948C12.4584 10.0124 12.2065 10.2661 11.8959 10.2661Z" fill="#828EE8"/>
<path id="Vector_7" d="M9.64587 10.2661C9.33521 10.2661 9.08337 10.0124 9.08337 9.69948C9.08337 9.38651 9.33521 9.13281 9.64587 9.13281C9.95654 9.13281 10.2084 9.38651 10.2084 9.69948C10.2084 10.0124 9.95654 10.2661 9.64587 10.2661Z" fill="#828EE8"/>
</g>
</g>
</svg>
