<svg width="16" height="16" viewBox="0 0 16 16" fill="none" xmlns="http://www.w3.org/2000/svg">
<g id="&#230;&#183;&#187;&#229;&#138;&#160;&#229;&#173;&#151;&#230;&#174;&#181;">
<path id="Vector" d="M5.51491 2.54688C5.75711 2.54688 5.98025 2.67821 6.09781 2.88996L6.91328 4.3589C7.02005 4.55123 7.02508 4.78386 6.92668 4.98063L6.14108 6.55187C6.14108 6.55187 6.36875 7.72233 7.32155 8.67513C8.27435 9.62793 9.44091 9.85167 9.44091 9.85167L11.0119 9.0662C11.2088 8.96773 11.4416 8.97283 11.634 9.0798L13.1071 9.8988C13.3186 10.0164 13.4498 10.2394 13.4498 10.4815V12.1726C13.4498 13.0339 12.6498 13.6559 11.8338 13.3805C10.1578 12.815 7.55628 11.7383 5.90735 10.0893C4.25838 8.4404 3.18165 5.83883 2.61614 4.16287C2.3408 3.34683 2.96283 2.54688 3.82405 2.54688H5.51491Z" stroke="#828EE8" stroke-linejoin="round"/>
</g>
</svg>
