<svg width="16" height="16" viewBox="0 0 16 16" fill="none" xmlns="http://www.w3.org/2000/svg">
<g id="&#230;&#183;&#187;&#229;&#138;&#160;&#229;&#173;&#151;&#230;&#174;&#181;" opacity="0.45">
<g id="Group 2491">
<path id="Vector" d="M12.8332 8.5V12.8333H3.1665V8.5H12.8332Z" stroke="black"/>
<path id="Vector_2" d="M13.3333 13.3333V8H2.66659V13.3333M13.3333 13.3333H2.66659H13.3333ZM13.3333 13.3333H1.33325H2.66659H13.3333ZM13.3333 13.3333H14.6666H13.3333Z" stroke="black" stroke-linecap="round" stroke-linejoin="round"/>
<path id="Vector_3" d="M13.3332 11.3307L11.9998 10.6641L10.6665 11.3307L9.33317 10.6641L7.99984 11.3307L6.6665 10.6641L5.33317 11.3307L3.99984 10.6641L2.6665 11.3307" stroke="black" stroke-linecap="round" stroke-linejoin="round"/>
<path id="Vector_4" d="M10.6665 8V5" stroke="black" stroke-linecap="round" stroke-linejoin="round"/>
<path id="Vector_5" d="M7.99988 8V5" stroke="black" stroke-linecap="round" stroke-linejoin="round"/>
<path id="Vector_6" d="M5.33325 8V5" stroke="black" stroke-linecap="round" stroke-linejoin="round"/>
<path id="Vector_7" d="M10.6665 3.33073V2.66406" stroke="black" stroke-linecap="round" stroke-linejoin="round"/>
<path id="Vector_8" d="M7.99988 3.33073V2.66406" stroke="black" stroke-linecap="round" stroke-linejoin="round"/>
<path id="Vector_9" d="M5.33325 3.33073V2.66406" stroke="black" stroke-linecap="round" stroke-linejoin="round"/>
<path id="Vector_10" d="M2.6665 8V13.3333" stroke="black" stroke-linecap="round" stroke-linejoin="round"/>
<path id="Vector_11" d="M13.3333 8V13.3333" stroke="black" stroke-linecap="round" stroke-linejoin="round"/>
</g>
</g>
</svg>
