<svg width="16" height="16" viewBox="0 0 16 16" fill="none" xmlns="http://www.w3.org/2000/svg">
<g id="&#230;&#183;&#187;&#229;&#138;&#160;&#229;&#173;&#151;&#230;&#174;&#181;">
<g id="Group 2849">
<path id="Vector" d="M2 11.6691L5.56437 8.4018C5.81297 8.1739 6.19263 8.16756 6.4487 8.38706L10.6667 12.0025" stroke="#828EE8" stroke-linecap="round" stroke-linejoin="round"/>
<path id="Vector_2" d="M9.33325 10.3333L10.9244 8.74212C11.159 8.50755 11.5304 8.48115 11.7958 8.68022L13.9999 10.3333" stroke="#828EE8" stroke-linecap="round" stroke-linejoin="round"/>
<g id="Group 2848">
<path id="Vector_3" d="M12.5858 2L14 3.41421" stroke="#828EE8" stroke-linecap="round" stroke-linejoin="round"/>
<path id="Vector_4" d="M12.5428 2L11.1286 3.41421" stroke="#828EE8" stroke-linecap="round" stroke-linejoin="round"/>
<path id="Vector_5" d="M12.5858 2V6" stroke="#828EE8" stroke-linecap="round" stroke-linejoin="round"/>
</g>
<path id="Vector_6" d="M14 8V13C14 13.5523 13.5523 14 13 14H3C2.44772 14 2 13.5523 2 13V3C2 2.44772 2.44772 2 3 2H8" stroke="#828EE8" stroke-linecap="round" stroke-linejoin="round"/>
</g>
</g>
</svg>
